<?xml version="1.0" encoding="UTF-8" standalone="no"?>
<!-- Generator: Adobe Illustrator 25.2.3, SVG Export Plug-In . SVG Version: 6.00 Build 0)  -->

<svg
   version="1.1"
   id="Layer_3"
   x="0px"
   y="0px"
   viewBox="0 0 128 128"
   style="enable-background:new 0 0 128 128;"
   xml:space="preserve"
   sodipodi:docname="icon.svg"
   inkscape:version="1.2.2 (b0a8486541, 2022-12-01)"
   inkscape:export-filename="icon.png"
   inkscape:export-xdpi="96"
   inkscape:export-ydpi="96"
   xmlns:inkscape="http://www.inkscape.org/namespaces/inkscape"
   xmlns:sodipodi="http://sodipodi.sourceforge.net/DTD/sodipodi-0.dtd"
   xmlns="http://www.w3.org/2000/svg"
   xmlns:svg="http://www.w3.org/2000/svg"><defs
   id="defs46" /><sodipodi:namedview
   id="namedview44"
   pagecolor="#ffffff"
   bordercolor="#666666"
   borderopacity="1.0"
   inkscape:showpageshadow="2"
   inkscape:pageopacity="0.0"
   inkscape:pagecheckerboard="0"
   inkscape:deskcolor="#d1d1d1"
   showgrid="false"
   inkscape:zoom="6.7550988"
   inkscape:cx="65.876165"
   inkscape:cy="56.031749"
   inkscape:window-width="2476"
   inkscape:window-height="1363"
   inkscape:window-x="2644"
   inkscape:window-y="40"
   inkscape:window-maximized="1"
   inkscape:current-layer="g41" />
<g
   id="g41"
   transform="translate(-0.005,-18.255)">
	
	
	
	<g
   id="g10">
		<path
   style="fill:#82aec0"
   d="M 119.57,124 H 8.43 C 5.98,124 4,121.94 4,119.41 V 45.1 c 0,-2.54 1.98,-4.59 4.43,-4.59 h 111.15 c 2.44,0 4.43,2.06 4.43,4.59 v 74.31 c -0.01,2.53 -1.99,4.59 -4.44,4.59 z"
   id="path8" />
	</g>
	<path
   style="fill:#212121"
   d="M 116.35,119.64 H 11.97 c -1.96,0 -3.55,-1.59 -3.55,-3.55 V 48.04 c 0,-1.96 1.59,-3.55 3.55,-3.55 h 104.38 c 1.96,0 3.55,1.59 3.55,3.55 v 68.05 c 0,1.96 -1.59,3.55 -3.55,3.55 z"
   id="path12" />
	<path
   style="fill:#b9e4ea"
   d="m 15.39,108.96 -4.8,7.55 c -0.84,1.32 0.06,3.11 1.62,3.12 0.02,0 0.04,0 0.06,0 2.13,0 80.24,0 82.72,0 h 0.07 c 1.77,-0.01 2.92,-1.87 2.15,-3.46 l -3,-6.18 z"
   id="path14" />
	<path
   style="fill:#216778;stroke:#212121;stroke-width:4;stroke-miterlimit:10"
   d="m 95.45,105.47 c -0.77,3.47 -3.34,6.15 -6.64,6.88 -5.42,1.21 -15.52,2.72 -32.16,2.72 -17.47,0 -29.19,-1.66 -35.5,-2.89 -3.49,-0.68 -6.23,-3.54 -6.91,-7.23 -1.57,-8.48 -3.54,-25.43 0.08,-46.6 0.67,-3.92 3.66,-6.93 7.39,-7.44 6.73,-0.93 18.75,-2.17 34.94,-2.17 15.36,0 25.65,1.12 31.48,2.02 3.59,0.56 6.46,3.47 7.19,7.24 4.33,22.3 1.94,39.29 0.13,47.47 z"
   id="path16" />
	<g
   id="g20">
		<path
   style="fill:#455a64"
   d="M 114.89,116.47 H 103.5 c -1.16,0 -2.09,-0.94 -2.09,-2.09 V 90.63 c 0,-1.16 0.94,-2.09 2.09,-2.09 h 11.39 c 1.16,0 2.09,0.94 2.09,2.09 v 23.75 c 0,1.15 -0.93,2.09 -2.09,2.09 z"
   id="path18" />
	</g>
	<g
   id="g24">
		<circle
   style="fill:#455a64"
   cx="109.2"
   cy="58.310001"
   r="6.8899999"
   id="circle22" />
	</g>
	<path
   style="fill:#82aec0"
   d="m 109.2,51.98 v 0 c -0.53,0 -0.99,0.36 -1.11,0.87 l -0.9,3.7 c -0.28,1.15 -0.28,2.35 0,3.51 l 0.9,3.7 c 0.13,0.51 0.58,0.87 1.11,0.87 v 0 c 0.53,0 0.99,-0.36 1.11,-0.87 l 0.9,-3.7 c 0.28,-1.15 0.28,-2.35 0,-3.51 l -0.9,-3.7 c -0.13,-0.51 -0.59,-0.87 -1.11,-0.87 z"
   id="path26" />
	<g
   id="g30">
		<circle
   style="fill:#455a64"
   cx="109.2"
   cy="76.120003"
   r="6.8899999"
   id="circle28" />
	</g>
	<path
   style="fill:#82aec0"
   d="m 104.33,72.08 v 0 c -0.34,0.41 -0.35,0.99 -0.04,1.41 l 2.27,3.05 c 0.71,0.95 1.63,1.72 2.7,2.24 l 3.42,1.66 c 0.47,0.23 1.04,0.11 1.38,-0.3 v 0 c 0.34,-0.41 0.35,-0.99 0.04,-1.41 l -2.27,-3.05 c -0.71,-0.95 -1.63,-1.72 -2.7,-2.24 l -3.42,-1.66 c -0.47,-0.23 -1.04,-0.1 -1.38,0.3 z"
   id="path32" />
	<linearGradient
   id="SVGID_1_"
   gradientUnits="userSpaceOnUse"
   x1="29.355101"
   y1="35.145699"
   x2="28.3104"
   y2="73.055496">
		<stop
   offset="0"
   style="stop-color:#FFFFFF"
   id="stop34" />
		<stop
   offset="1"
   style="stop-color:#FFFFFF;stop-opacity:0"
   id="stop36" />
	</linearGradient>
	<path
   style="fill:url(#SVGID_1_)"
   d="m 31.08,55.78 c 1.68,-0.2 4.86,-0.06 5.98,3.35 1.12,3.41 -1.34,4.33 -2.66,5.34 -3.79,2.89 -5.67,3.99 -7.95,7.14 -1.82,2.52 -5,1.73 -5.95,0.07 -0.76,-1.34 -1.32,-5.64 0.29,-8.48 3.47,-6.08 8.61,-7.22 10.29,-7.42 z"
   id="path39" />
</g>
</svg>
